<?xml version="1.0" encoding="UTF-8" standalone="no"?>
<!-- Created with Inkscape (http://www.inkscape.org/) -->

<svg
   width="115mm"
   height="13mm"
   viewBox="0 0 115.00001 13.000003"
   version="1.1"
   id="svg1"
   inkscape:version="1.1.2 (0a00cf5339, 2022-02-04)"
   sodipodi:docname="cville-logo.svg"
   xmlns:inkscape="http://www.inkscape.org/namespaces/inkscape"
   xmlns:sodipodi="http://sodipodi.sourceforge.net/DTD/sodipodi-0.dtd"
   xmlns:xlink="http://www.w3.org/1999/xlink"
   xmlns="http://www.w3.org/2000/svg"
   xmlns:svg="http://www.w3.org/2000/svg">
  <sodipodi:namedview
     id="namedview1"
     pagecolor="#ffffff"
     bordercolor="#000000"
     borderopacity="0.25"
     inkscape:showpageshadow="2"
     inkscape:pageopacity="0.0"
     inkscape:pagecheckerboard="0"
     inkscape:deskcolor="#d1d1d1"
     inkscape:document-units="mm"
     inkscape:zoom="0.91506369"
     inkscape:cx="326.2068"
     inkscape:cy="-15.845892"
     inkscape:window-width="1058"
     inkscape:window-height="688"
     inkscape:window-x="0"
     inkscape:window-y="0"
     inkscape:window-maximized="1"
     inkscape:current-layer="layer1"
     inkscape:pageshadow="2"
     showgrid="false" />
  <defs
     id="defs1">
    <linearGradient
       id="linearGradient5"
       inkscape:collect="always">
      <stop
         style="stop-color:#e337c6;stop-opacity:1;"
         offset="0"
         id="stop5" />
      <stop
         style="stop-color:#d6138b;stop-opacity:1;"
         offset="1"
         id="stop6" />
    </linearGradient>
    <rect
       x="158.77145"
       y="313.45102"
       width="214.53658"
       height="44.855179"
       id="rect4" />
    <rect
       x="149.46188"
       y="250.0611"
       width="208.01645"
       height="47.589252"
       id="rect3" />
    <rect
       x="110.11697"
       y="182.92549"
       width="322.30084"
       height="108.89026"
       id="rect1" />
    <linearGradient
       inkscape:collect="always"
       xlink:href="#linearGradient5"
       id="linearGradient6"
       x1="153.01593"
       y1="270.02747"
       x2="327.29013"
       y2="269.56348"
       gradientUnits="userSpaceOnUse" />
  </defs>
  <g
     inkscape:label="Layer 1"
     inkscape:groupmode="layer"
     id="layer1">
    <text
       xml:space="preserve"
       transform="scale(0.26458333)"
       id="text1"
       style="white-space:pre;shape-inside:url(#rect1);display:inline;fill:#000000" />
    <g
       aria-label="C’ville"
       id="text2"
       style="font-size:9.87778px;font-family:Montserrat;-inkscape-font-specification:'Montserrat, @wght=600';font-variation-settings:'wght' 600;fill:#ededed;stroke-width:0.264583">
      <path
         d="m 4.9815544,10.362212 q -0.7902224,0 -1.4717892,-0.256822 Q 2.8380762,9.8386899 2.3343094,9.3645564 1.8404204,8.8805452 1.5638426,8.2286117 1.2872647,7.5766783 1.2872647,6.8062114 q 0,-0.7704668 0.2765779,-1.4224003 Q 1.8404204,4.7318776 2.3441872,4.2577442 2.847954,3.773733 3.519643,3.5169107 4.191332,3.2502106 4.9914322,3.2502106 q 0.8494891,0 1.5508115,0.2963334 0.7013224,0.2864557 1.1853336,0.8593669 L 6.8978438,5.1862555 Q 6.5224881,4.7812665 6.0582325,4.5837109 5.5939768,4.3762776 5.0506989,4.3762776 q -0.5432779,0 -0.9976558,0.1778 -0.4445001,0.1778 -0.7803446,0.5037668 -0.3259667,0.3259667 -0.5136446,0.7704668 -0.1778,0.4445001 -0.1778,0.9779002 0,0.5334001 0.1778,0.9779002 0.1876779,0.4445001 0.5136446,0.7704669 0.3358445,0.3259667 0.7803446,0.5037668 0.4543779,0.1778 0.9976558,0.1778 0.5432779,0 1.0075336,-0.1975556 Q 6.5224881,8.8311563 6.8978438,8.4162896 L 7.7275773,9.206512 Q 7.2435661,9.7695454 6.5422437,10.065879 5.8409213,10.362212 4.9815544,10.362212 Z"
         id="path93" />
      <path
         d="M 8.6359781,5.927089 9.2088894,3.7342219 9.3768116,4.4750554 q -0.3457223,0 -0.582789,-0.2173112 -0.2271889,-0.2173112 -0.2271889,-0.582789 0,-0.3654779 0.2271889,-0.582789 0.2370667,-0.227189 0.5729113,-0.227189 0.3457223,0 0.5729112,0.227189 0.2271889,0.2271889 0.2271889,0.582789 0,0.1086556 -0.01976,0.2271889 -0.0099,0.1086556 -0.05927,0.2568223 -0.03951,0.1382889 -0.1382891,0.3654779 L 9.4360783,5.927089 Z"
         id="path95" />
      <path
         d="M 12.925128,10.263434 10.663117,4.9886999 h 1.284111 l 1.945923,4.6524344 H 13.260973 L 15.27604,4.9886999 h 1.185334 l -2.262012,5.2747341 z"
         id="path97" />
      <path
         d="M 17.231831,10.263434 V 4.9886999 h 1.234723 v 5.2747341 z m 0.622301,-6.1439787 q -0.345723,0 -0.572912,-0.2173112 -0.217311,-0.2173111 -0.217311,-0.5235223 0,-0.316089 0.217311,-0.5235224 0.227189,-0.2173111 0.572912,-0.2173111 0.345722,0 0.563033,0.2074334 0.227189,0.1975556 0.227189,0.5037667 0,0.3259668 -0.217311,0.5531557 -0.217311,0.2173112 -0.572911,0.2173112 z"
         id="path99" />
      <path
         d="M 20.086506,10.263434 V 2.9341217 h 1.234722 v 7.3293123 z"
         id="path101" />
      <path
         d="M 22.941179,10.263434 V 2.9341217 h 1.234723 v 7.3293123 z"
         id="path103" />
      <path
         d="m 28.275177,10.332579 q -0.879122,0 -1.540934,-0.3457224 -0.651933,-0.3556001 -1.017411,-0.9680225 -0.3556,-0.6124223 -0.3556,-1.3927669 0,-0.7902224 0.345722,-1.392767 0.3556,-0.6124224 0.968023,-0.9581447 0.6223,-0.3457223 1.412522,-0.3457223 0.770467,0 1.373012,0.3358446 0.602544,0.3358445 0.948267,0.9482668 0.345722,0.6124224 0.345722,1.4421559 0,0.079022 -0.0099,0.1778 0,0.098778 -0.0099,0.1876779 H 26.339132 V 7.2013226 h 3.743679 L 29.5988,7.4581449 Q 29.608677,7.003767 29.411122,6.6580447 29.213566,6.3123224 28.867844,6.1147668 28.531999,5.9172112 28.087499,5.9172112 q -0.454378,0 -0.8001,0.1975556 -0.335844,0.1975556 -0.5334,0.5531557 -0.187678,0.3457223 -0.187678,0.8198557 v 0.1975556 q 0,0.4741335 0.217311,0.8396113 0.217312,0.3654779 0.612423,0.5630335 0.395111,0.1975556 0.908756,0.1975556 0.4445,0 0.8001,-0.1382889 0.3556,-0.1382889 0.632178,-0.4346223 L 30.3989,9.473212 q -0.3556,0.4148668 -0.898878,0.642056 -0.5334,0.217311 -1.224845,0.217311 z"
         id="path105" />
    </g>
    <g
       aria-label="Creative"
       transform="matrix(0.26458333,0,0,0.26458333,-3.8246582,-62.46334)"
       id="text3"
       style="font-weight:bold;font-size:29.3333px;font-family:Purisa;-inkscape-font-specification:'Purisa, Bold';white-space:pre;shape-inside:url(#rect3);display:inline;fill:url(#linearGradient6)">
      <path
         d="m 167.79425,253.31552 q 0,0.76267 -0.82133,0.76267 -0.528,0 -0.99733,-0.29333 -0.44,-0.32267 -0.616,-0.64534 l -0.176,-0.29333 q -0.11734,-0.14667 -0.44,-0.14667 -1.496,0 -3.72533,0.93867 -2.22933,0.93867 -3.432,2.112 -0.99733,0.968 -1.496,3.05066 -0.49866,2.08267 -0.49866,6.21866 0,1.96533 0.55733,3.168 0.528,1.144 1.55466,1.87733 1.02667,0.73333 2.112,0.73333 0.67467,0 2.08267,-0.616 1.40799,-0.616 1.99466,-1.17333 l 1.61333,-1.496 q 0.73333,-0.67466 1.52533,-1.78933 0.82134,-1.144 1.34934,-1.78933 0.55733,-0.64533 0.99733,-0.64533 0.20533,0.0587 0.29333,0.088 0.11733,0.0293 0.264,0.32266 0.14667,0.29334 0.14667,0.792 0,0.616 -0.85067,2.08267 -0.85066,1.43733 -2.2,3.05066 -1.34933,1.584 -3.34399,2.78666 -1.99467,1.20267 -3.93066,1.20267 -4.07733,0 -6.424,-4.576 -0.32266,-0.64533 -0.32266,-4.01866 0,-6.04266 0.58666,-8.03732 0.792,-2.728 3.93066,-4.78133 3.168,-2.05333 6.072,-2.05333 1.64266,0 2.90399,0.99733 1.29067,0.968 1.29067,2.17066 z"
         id="path126" />
      <path
         d="m 185.59954,259.59285 q 0.55734,0 0.968,0.264 0.41067,0.23467 0.528,0.46933 0.14667,0.23467 0.14667,0.41067 0,0.58666 -1.34933,1.08533 -1.78934,0.67467 -3.90133,3.31466 -2.08267,2.64 -2.52267,4.95733 -0.55733,2.96266 -0.93866,3.93066 -0.38134,0.99734 -1.11467,0.99734 -0.29333,0 -0.528,-0.088 -0.20533,-0.0587 -0.352,-0.264 -0.14666,-0.20534 -0.23466,-0.352 -0.088,-0.14667 -0.176,-0.46934 -0.0587,-0.352 -0.088,-0.49866 0,-0.176 -0.0587,-0.55733 -0.0293,-0.41067 -0.0293,-0.49867 -0.704,-6.86399 -0.704,-11.52799 0,-0.968 0.11733,-1.496 0.11733,-0.55733 0.58667,-0.96799 0.29333,-0.264 0.64533,-0.264 0.38133,0 0.64533,0.32266 0.264,0.29333 0.264,0.792 0,1.08533 0.29333,3.08 0.32267,1.96533 0.58667,3.07999 0.23467,-0.32266 0.67467,-0.99733 1.11466,-1.81866 3.10933,-3.25599 1.99466,-1.46667 3.43199,-1.46667 z"
         id="path128" />
      <path
         d="m 203.2875,262.20351 q 0,-0.23466 -1.29067,-1.20266 -0.93867,-0.704 -1.34933,-0.88 -0.38133,-0.176 -1.11467,-0.176 -1.46666,0 -2.17066,0.23467 -0.67467,0.20533 -1.43733,0.93866 -2.25867,2.2 -2.288,2.84533 0.11733,0.0293 0.49867,0.0293 2.84533,0 7.89065,-0.99734 1.26134,-0.23466 1.26134,-0.792 z m 3.78399,4.63467 q 0.528,0 0.528,0.61599 0,0.67467 -0.85067,1.936 -0.85066,1.232 -1.70133,1.99467 -3.28533,2.81599 -6.77599,2.81599 -2.87466,0 -5.19199,-2.25866 -2.31733,-2.25866 -2.31733,-6.21866 0,-1.11467 0.32266,-2.14133 0.616,-1.81867 2.75733,-3.784 2.14133,-1.99466 4.10666,-1.99466 0.528,0 1.55467,0.088 1.584,0.11733 2.22933,0.32267 0.67467,0.17599 1.52533,0.73333 0.93867,0.616 1.70133,1.76 0.76267,1.11466 0.76267,1.96533 0,1.11466 -0.90933,1.64266 -0.90934,0.528 -3.08,0.968 -2.84533,0.55733 -5.86666,0.73333 l -2.552,0.11734 v 0.76266 q 0,1.08533 0.46934,1.90667 0.49866,0.82133 1.58399,1.73066 1.55467,1.29067 3.168,1.29067 1.29067,0 2.728,-0.76267 1.43733,-0.792 2.43466,-1.73066 1.02667,-0.93867 1.96533,-1.70134 0.968,-0.79199 1.408,-0.79199 z"
         id="path130" />
      <path
         d="m 219.56744,270.53417 q 0,-0.352 0.968,-1.17333 0.968,-0.82133 0.99733,-1.056 0,-0.11733 -0.176,-0.32267 -0.176,-0.20533 -0.93867,-0.46933 -0.73333,-0.264 -1.93599,-0.264 -1.29067,0 -2.25867,0.38133 -0.93866,0.38134 -1.408,0.93867 -0.46933,0.55733 -0.67466,1.02667 -0.20533,0.46933 -0.20533,0.82133 0,0.58666 0.088,0.76266 0.11733,0.14667 0.55733,0.352 0.67466,0.264 1.08533,0.264 0.64533,0 1.61333,-0.32266 0.968,-0.32267 1.64267,-0.616 z m 5.27999,1.87733 q -0.0587,0.67467 -0.528,1.17333 -0.44,0.46934 -0.73333,0.46934 -0.176,0 -0.352,-0.0587 -0.14667,-0.0587 -0.29333,-0.20533 -0.11734,-0.176 -0.23467,-0.29334 -0.088,-0.14666 -0.176,-0.41066 -0.0587,-0.264 -0.11733,-0.41067 -0.0587,-0.176 -0.11733,-0.49866 -0.0587,-0.32267 -0.088,-0.46934 0,-0.14666 -0.0587,-0.46933 -0.0587,-0.32267 -0.0587,-0.41067 -0.93866,1.08534 -2.78666,2.112 -1.81867,0.99733 -3.10933,0.99733 -0.82133,0 -1.96533,-0.264 -1.144,-0.264 -1.672,-0.64533 -0.90933,-0.67466 -0.90933,-2.87466 0,-1.29067 0.73333,-2.22933 0.73333,-0.93867 2.64,-1.87733 2.14133,-1.08534 4.01866,-1.08534 0.82133,0 1.34933,0.20534 0.55733,0.20533 0.85067,0.49866 0.32266,0.264 0.352,0.264 0.46933,0.088 0.82133,0.38134 0,-1.936 -0.176,-3.22667 -0.14667,-1.32 -0.44,-1.93599 -0.29333,-0.616 -0.58667,-0.85067 -0.29333,-0.23467 -0.704,-0.23467 -1.40799,0 -3.05066,0.55734 -1.61333,0.55733 -2.93333,1.14399 -1.29066,0.55734 -1.87733,0.55734 -0.73333,0 -0.73333,-0.67467 0,-0.41066 0.176,-0.73333 0.176,-0.352 0.41066,-0.58667 0.264,-0.23466 0.792,-0.46933 0.55734,-0.264 0.99733,-0.41067 0.46934,-0.176 1.34934,-0.46933 0.88,-0.32267 1.52533,-0.55733 1.76,-0.616 3.07999,-0.616 2.376,0 3.54933,2.22933 0.528,0.99733 0.616,1.81866 0.11734,0.82134 0.176,4.78133 0.0587,3.72533 0.264,5.77866 z"
         id="path132" />
      <path
         d="m 234.11675,257.86219 q -0.93866,0.0587 -2.58133,0.352 -1.61333,0.26399 -2.17066,0.26399 -1.26133,0 -1.26133,-0.99733 0,-0.792 1.11466,-1.20266 1.11467,-0.41067 2.64,-0.64534 1.55466,-0.23466 1.99466,-0.46933 0.23467,-0.23466 0.23467,-1.26133 0,-1.056 -0.264,-2.75733 -0.264,-1.70133 -0.264,-3.08 0,-0.93866 0.49867,-1.37866 0.49866,-0.46933 1.08533,-0.46933 0.64533,0 0.90933,0.52799 0.14667,0.44 0.49867,3.84267 0.352,3.37333 0.44,3.90133 0.23466,-0.0293 1.55466,-0.23467 1.34933,-0.23467 2.05333,-0.23467 0.99733,0 1.408,0.32267 0.41067,0.32267 0.41067,0.704 0,0.55733 -0.76267,0.93866 -0.76266,0.38134 -2.75733,0.88 l -1.672,0.264 0.23467,4.45866 q 0.23467,4.136 0.82133,7.744 0.58667,3.60799 0.58667,4.16532 0,1.29067 -1.34933,1.29067 -0.792,0 -1.17334,-0.29333 -0.87999,-0.792 -0.87999,-3.31467 0,-1.02666 -0.11734,-2.08266 -0.11733,-1.08533 -0.41066,-3.344 -0.264,-2.28799 -0.49867,-4.72266 -0.29333,-3.05066 -0.32267,-3.16799 z"
         id="path134" />
      <path
         d="m 247.72735,257.18752 q 0.49867,-0.352 0.968,-0.352 0.46933,0 0.792,0.38133 0.46933,0.88 0.76266,5.104 0.32267,4.22399 0.32267,7.89065 0,2.64 -0.176,2.992 -0.58667,0.46933 -1.26133,0.46933 -1.02667,0 -1.26133,-0.616 -0.14667,-0.46933 -0.46934,-6.10132 -0.29333,-5.66133 -0.29333,-7.56799 0,-1.78933 0.616,-2.2 z m -0.32267,-6.86399 q 0.0587,-0.55734 0.46934,-0.90933 0.44,-0.352 0.85066,-0.352 0.41067,0 1.056,0.38133 0.64533,0.38133 0.64533,1.02666 0,0.704 -0.352,1.26134 -0.352,0.55733 -0.93866,0.55733 -0.616,0 -1.17333,-0.55733 -0.55734,-0.58667 -0.55734,-1.408 z"
         id="path136" />
      <path
         d="m 267.61531,260.00352 q 0,-0.82134 0.49866,-1.61334 0.528,-0.79199 1.29067,-0.79199 0.20533,0 0.41066,0.088 0.20534,0.0587 0.41067,0.32266 0.20533,0.264 0.20533,0.73333 0,0.792 -0.76266,2.992 -0.73333,2.17067 -2.992,7.91999 -0.85066,2.17067 -2.17066,3.81333 -1.32,1.61333 -2.2,1.61333 -0.46933,0 -0.88,-0.264 -0.38133,-0.264 -0.76267,-0.85066 -0.38133,-0.58667 -0.67466,-1.20267 -0.29333,-0.616 -0.64533,-1.64266 -0.352,-1.056 -0.616,-1.87733 -0.23467,-0.82134 -0.64534,-2.17067 -0.41066,-1.37866 -0.70399,-2.25866 -1.76,-5.57333 -1.76,-6.30666 0,-0.64533 0.616,-0.64533 0.176,0 0.352,0.0293 h 0.0293 q 0.968,0.23467 2.14133,3.10933 1.17333,2.87466 2.288,6.71732 1.11466,3.81333 1.408,4.488 0.55733,-0.76267 1.43733,-2.43466 0.88,-1.70134 1.37866,-3.19733 0.46934,-1.34934 1.08533,-2.93333 0.64534,-1.584 0.93867,-2.40533 0.32267,-0.85067 0.32267,-1.232 z"
         id="path138" />
      <path
         d="m 285.97791,262.20351 q 0,-0.23466 -1.29067,-1.20266 -0.93866,-0.704 -1.34933,-0.88 -0.38133,-0.176 -1.11467,-0.176 -1.46666,0 -2.17066,0.23467 -0.67467,0.20533 -1.43733,0.93866 -2.25867,2.2 -2.288,2.84533 0.11733,0.0293 0.49867,0.0293 2.84533,0 7.89065,-0.99734 1.26134,-0.23466 1.26134,-0.792 z m 3.78399,4.63467 q 0.528,0 0.528,0.61599 0,0.67467 -0.85066,1.936 -0.85067,1.232 -1.70134,1.99467 -3.28533,2.81599 -6.77599,2.81599 -2.87466,0 -5.19199,-2.25866 -2.31733,-2.25866 -2.31733,-6.21866 0,-1.11467 0.32266,-2.14133 0.616,-1.81867 2.75733,-3.784 2.14133,-1.99466 4.10667,-1.99466 0.52799,0 1.55466,0.088 1.584,0.11733 2.22933,0.32267 0.67467,0.17599 1.52533,0.73333 0.93867,0.616 1.70133,1.76 0.76267,1.11466 0.76267,1.96533 0,1.11466 -0.90933,1.64266 -0.90933,0.528 -3.08,0.968 -2.84533,0.55733 -5.86666,0.73333 l -2.552,0.11734 v 0.76266 q 0,1.08533 0.46934,1.90667 0.49866,0.82133 1.584,1.73066 1.55466,1.29067 3.16799,1.29067 1.29067,0 2.728,-0.76267 1.43733,-0.792 2.43466,-1.73066 1.02667,-0.93867 1.96533,-1.70134 0.968,-0.79199 1.408,-0.79199 z"
         id="path140" />
    </g>
    <text
       xml:space="preserve"
       transform="scale(0.26458333)"
       id="text4"
       style="font-style:normal;font-variant:normal;font-weight:normal;font-stretch:normal;font-size:37.3333px;font-family:'DejaVu Sans Mono';-inkscape-font-specification:'DejaVu Sans Mono, Normal';font-variant-ligatures:normal;font-variant-caps:normal;font-variant-numeric:normal;font-variant-east-asian:normal;white-space:pre;shape-inside:url(#rect4);display:inline;fill:#000000" />
    <g
       aria-label="Coders"
       id="text5"
       style="font-size:9.87777px;font-family:Montserrat;-inkscape-font-specification:'Montserrat, @wght=600';font-variation-settings:'wght' 600;fill:#ededed;stroke-width:0.264583">
      <path
         d="m 82.580309,10.214042 q -0.790222,0 -1.471788,-0.2568224 Q 80.436833,9.6905198 79.933066,9.2163868 79.439178,8.7323761 79.1626,8.0804432 78.886023,7.4285104 78.886023,6.6580443 q 0,-0.7704661 0.276577,-1.422399 0.276578,-0.6519328 0.780344,-1.1260658 0.503766,-0.4840107 1.175455,-0.7408328 0.671688,-0.2666998 1.471788,-0.2666998 0.849488,0 1.55081,0.2963332 0.701321,0.2864553 1.185332,0.859366 l -0.829733,0.7803438 q -0.375355,-0.4049885 -0.83961,-0.602544 -0.464255,-0.2074331 -1.007533,-0.2074331 -0.543277,0 -0.997655,0.1777998 -0.444499,0.1777999 -0.780343,0.5037663 -0.325967,0.3259664 -0.513645,0.7704661 -0.177799,0.4444997 -0.177799,0.9778993 0,0.5333996 0.177799,0.9778993 0.187678,0.4444996 0.513645,0.7704661 0.335844,0.3259664 0.780343,0.5037662 0.454378,0.1777999 0.997655,0.1777999 0.543278,0 1.007533,-0.1975554 0.464255,-0.2074332 0.83961,-0.6222995 l 0.829733,0.7902216 q -0.484011,0.5630329 -1.185332,0.859366 -0.701322,0.2963335 -1.560688,0.2963335 z"
         id="path161" />
      <path
         d="m 88.613392,10.184408 q -0.809977,0 -1.442155,-0.3457216 Q 86.53906,9.4830866 86.173583,8.8706649 85.808105,8.2582431 85.808105,7.4778992 q 0,-0.7902216 0.365478,-1.3927656 0.365477,-0.6124218 0.997654,-0.9581437 0.632178,-0.345722 1.442155,-0.345722 0.819855,0 1.452032,0.345722 0.642055,0.3457219 0.997655,0.9482659 0.365477,0.602544 0.365477,1.4026434 0,0.7803439 -0.365477,1.3927657 -0.3556,0.6124217 -0.997655,0.9680215 -0.632177,0.3457216 -1.452032,0.3457216 z m 0,-1.0569211 q 0.454377,0 0.809977,-0.1975554 0.3556,-0.1975554 0.553155,-0.5729107 0.207433,-0.3753553 0.207433,-0.8791216 0,-0.513644 -0.207433,-0.8791215 -0.197555,-0.3753553 -0.553155,-0.5729107 -0.3556,-0.1975554 -0.800099,-0.1975554 -0.454378,0 -0.809978,0.1975554 -0.345722,0.1975554 -0.553155,0.5729107 -0.207433,0.3654775 -0.207433,0.8791215 0,0.5037663 0.207433,0.8791216 0.207433,0.3753553 0.553155,0.5729107 0.3556,0.1975554 0.8001,0.1975554 z"
         id="path163" />
      <path
         d="m 94.846251,10.184408 q -0.760588,0 -1.37301,-0.3358439 -0.602544,-0.3457219 -0.948266,-0.9482659 -0.345722,-0.602544 -0.345722,-1.422399 0,-0.8198549 0.345722,-1.4223989 0.345722,-0.602544 0.948266,-0.9383882 0.612422,-0.3358442 1.37301,-0.3358442 0.661811,0 1.185333,0.2963331 0.523521,0.2864554 0.829732,0.8791216 0.306211,0.5926662 0.306211,1.5211766 0,0.9186327 -0.296333,1.5211767 -0.296333,0.5926662 -0.819855,0.8889993 -0.523522,0.2963328 -1.205088,0.2963328 z m 0.148167,-1.0569211 q 0.444499,0 0.790221,-0.1975554 0.3556,-0.1975554 0.563033,-0.5729107 0.217311,-0.3753553 0.217311,-0.8791216 0,-0.513644 -0.217311,-0.8791215 Q 96.140239,6.2234224 95.784639,6.025867 95.438917,5.8283116 94.994418,5.8283116 q -0.4445,0 -0.8001,0.1975554 -0.345722,0.1975554 -0.563033,0.5729107 -0.207433,0.3654775 -0.207433,0.8791215 0,0.5037663 0.207433,0.8791216 0.217311,0.3753553 0.563033,0.5729107 0.3556,0.1975554 0.8001,0.1975554 z m 1.600199,0.9877771 V 8.8706649 l 0.04939,-1.4026434 -0.09878,-1.4026434 V 2.7859583 h 1.224843 v 7.3293057 z"
         id="path165" />
      <path
         d="m 101.87921,10.184408 q -0.87913,0 -1.54094,-0.3457216 -0.651929,-0.3555998 -1.017406,-0.9680215 -0.3556,-0.6124218 -0.3556,-1.3927657 0,-0.7902216 0.345722,-1.3927656 0.3556,-0.6124218 0.968024,-0.9581437 0.6223,-0.345722 1.41252,-0.345722 0.77046,0 1.37301,0.3358442 0.60254,0.3358442 0.94826,0.948266 0.34573,0.6124217 0.34573,1.4421544 0,0.079022 -0.01,0.1777999 0,0.098778 -0.01,0.1876777 h -4.395607 v -0.819855 h 3.743677 l -0.48401,0.256822 q 0.01,-0.4543774 -0.18768,-0.8000994 -0.19756,-0.3457219 -0.54328,-0.5432773 -0.33584,-0.1975554 -0.78034,-0.1975554 -0.45438,0 -0.8001,0.1975554 -0.33585,0.1975554 -0.5334,0.5531551 -0.18768,0.345722 -0.18768,0.8198549 v 0.1975555 q 0,0.4741329 0.21731,0.8396104 0.21731,0.3654775 0.61242,0.563033 0.39512,0.1975554 0.90876,0.1975554 0.4445,0 0.8001,-0.1382888 0.3556,-0.1382888 0.63218,-0.4346219 l 0.66181,0.7605883 q -0.3556,0.4148664 -0.89888,0.6420551 -0.5334,0.2173106 -1.22484,0.2173106 z"
         id="path167" />
      <path
         d="M 105.54386,10.115264 V 4.8405345 h 1.17545 v 1.4520323 l -0.13829,-0.4247441 q 0.23707,-0.5333996 0.74083,-0.8099772 0.51365,-0.2765776 1.27424,-0.2765776 v 1.1754547 q -0.079,-0.019756 -0.14817,-0.019756 -0.0691,-0.00988 -0.13829,-0.00988 -0.70132,0 -1.11619,0.4148663 -0.41486,0.4049886 -0.41486,1.2149658 v 2.5583426 z"
         id="path169" />
      <path
         d="m 111.32232,10.184408 q -0.66181,0 -1.27424,-0.167922 -0.60254,-0.1777996 -0.95814,-0.4247439 l 0.47413,-0.9383882 q 0.3556,0.2271887 0.84949,0.3753553 0.49389,0.1481665 0.98778,0.1481665 0.58279,0 0.83961,-0.1580443 0.2667,-0.1580443 0.2667,-0.4247441 0,-0.217311 -0.1778,-0.3259664 -0.1778,-0.1185333 -0.46426,-0.1777999 -0.28645,-0.059267 -0.64205,-0.1086555 -0.34572,-0.049389 -0.70132,-0.128411 -0.34572,-0.0889 -0.63218,-0.2469442 -0.28646,-0.1679221 -0.46426,-0.4444997 -0.1778,-0.2765776 -0.1778,-0.730955 0,-0.5037663 0.28646,-0.8692438 0.28646,-0.3753553 0.8001,-0.5729107 0.52352,-0.2074332 1.23472,-0.2074332 0.5334,0 1.07668,0.1185333 0.54328,0.1185332 0.89887,0.3358441 l -0.47413,0.9383882 q -0.37535,-0.2271887 -0.76059,-0.3062108 -0.37535,-0.0889 -0.75071,-0.0889 -0.56303,0 -0.83961,0.1679221 -0.2667,0.1679221 -0.2667,0.4247441 0,0.2370665 0.1778,0.3555998 0.1778,0.1185332 0.46426,0.1876776 0.28645,0.069144 0.63218,0.1185333 0.35559,0.039511 0.70132,0.128411 0.34572,0.0889 0.63217,0.2469442 0.29634,0.1481666 0.47414,0.4247442 0.1778,0.2765775 0.1778,0.7210772 0,0.4938885 -0.29634,0.859366 -0.28645,0.3654775 -0.81985,0.5729107 -0.5334,0.1975551 -1.27423,0.1975551 z"
         id="path171" />
    </g>
  </g>
</svg>
