<?xml version="1.0" encoding="UTF-8" standalone="no"?>
<!-- Created with Inkscape (http://www.inkscape.org/) -->

<svg
   width="210mm"
   height="297mm"
   viewBox="0 0 210 297"
   version="1.1"
   id="svg749"
   inkscape:version="1.1.2 (0a00cf5339, 2022-02-04)"
   sodipodi:docname="favicon.svg"
   xmlns:inkscape="http://www.inkscape.org/namespaces/inkscape"
   xmlns:sodipodi="http://sodipodi.sourceforge.net/DTD/sodipodi-0.dtd"
   xmlns:xlink="http://www.w3.org/1999/xlink"
   xmlns="http://www.w3.org/2000/svg"
   xmlns:svg="http://www.w3.org/2000/svg">
  <sodipodi:namedview
     id="namedview751"
     pagecolor="#ffffff"
     bordercolor="#666666"
     borderopacity="1.0"
     inkscape:pageshadow="2"
     inkscape:pageopacity="0.0"
     inkscape:pagecheckerboard="0"
     inkscape:document-units="mm"
     showgrid="false"
     inkscape:zoom="4.8553552"
     inkscape:cx="407.79715"
     inkscape:cy="541.36102"
     inkscape:window-width="1058"
     inkscape:window-height="688"
     inkscape:window-x="0"
     inkscape:window-y="0"
     inkscape:window-maximized="1"
     inkscape:current-layer="layer1" />
  <defs
     id="defs746">
    <linearGradient
       inkscape:collect="always"
       xlink:href="#linearGradient5"
       id="linearGradient6"
       x1="153.01593"
       y1="270.02747"
       x2="327.29013"
       y2="269.56348"
       gradientUnits="userSpaceOnUse"
       gradientTransform="matrix(0.26458333,0,0,0.26458333,65.482866,73.221124)" />
    <linearGradient
       id="linearGradient5"
       inkscape:collect="always">
      <stop
         style="stop-color:#e337c6;stop-opacity:1;"
         offset="0"
         id="stop5" />
      <stop
         style="stop-color:#d6138b;stop-opacity:1;"
         offset="1"
         id="stop6" />
    </linearGradient>
  </defs>
  <g
     inkscape:label="Layer 1"
     inkscape:groupmode="layer"
     id="layer1">
    <path
       d="m 109.87843,140.24419 q 0,0.20179 -0.21731,0.20179 -0.1397,0 -0.26388,-0.0776 -0.11642,-0.0854 -0.16298,-0.17075 l -0.0466,-0.0776 q -0.0311,-0.0388 -0.11642,-0.0388 -0.39581,0 -0.98566,0.24836 -0.58984,0.24836 -0.90805,0.5588 -0.26387,0.25612 -0.39581,0.80715 -0.13194,0.55104 -0.13194,1.64536 0,0.51999 0.14746,0.8382 0.1397,0.30268 0.41134,0.49671 0.27164,0.19403 0.5588,0.19403 0.1785,0 0.55104,-0.16299 0.37253,-0.16298 0.52775,-0.31044 l 0.42686,-0.39582 q 0.19403,-0.1785 0.40358,-0.47342 0.21731,-0.30269 0.35701,-0.47343 0.14746,-0.17075 0.26388,-0.17075 0.0543,0.0155 0.0776,0.0233 0.031,0.008 0.0699,0.0854 0.0388,0.0776 0.0388,0.20955 0,0.16298 -0.22507,0.55104 -0.22507,0.38029 -0.58208,0.80715 -0.35701,0.4191 -0.88477,0.73731 -0.52775,0.3182 -1.03998,0.3182 -1.0788,0 -1.69969,-1.21073 -0.0854,-0.17074 -0.0854,-1.06327 0,-1.59879 0.15522,-2.12654 0.20955,-0.72179 1.03999,-1.26506 0.8382,-0.54328 1.60655,-0.54328 0.43462,0 0.76835,0.26388 0.34149,0.25611 0.34149,0.57432 z"
       id="path126"
       style="font-weight:bold;font-size:29.3333px;font-family:Purisa;-inkscape-font-specification:'Purisa, Bold';white-space:pre;shape-inside:url(#rect3);display:inline;fill:url(#linearGradient6);stroke-width:0.264583" />
  </g>
</svg>
