<?xml version="1.0" standalone="no"?>
<!DOCTYPE svg PUBLIC "-//W3C//DTD SVG 20010904//EN"
 "http://www.w3.org/TR/2001/REC-SVG-20010904/DTD/svg10.dtd">
<svg version="1.0" xmlns="http://www.w3.org/2000/svg"
 width="634.000000pt" height="634.000000pt" viewBox="0 0 634.000000 634.000000"
 preserveAspectRatio="xMidYMid meet">
<metadata>
Created by potrace 1.14, written by Peter Selinger 2001-2017
</metadata>
<g transform="translate(0.000000,634.000000) scale(0.100000,-0.100000)"
fill="#000000" stroke="none">
<path d="M1140 5734 c-181 -27 -287 -57 -414 -118 -405 -194 -653 -566 -715
-1076 -9 -76 -6 -421 4 -495 32 -226 106 -432 213 -596 65 -100 73 -110 169
-205 65 -66 239 -197 263 -199 3 -1 28 -13 55 -27 81 -42 192 -78 320 -105 96
-20 155 -26 295 -29 96 -1 202 1 235 6 33 4 83 11 110 15 28 4 102 23 165 42
133 41 146 43 142 24 -5 -22 -3 -548 2 -626 13 -196 24 -233 112 -365 77 -117
226 -272 319 -336 125 -84 303 -153 440 -169 61 -7 244 -8 280 -1 11 2 43 7
70 11 246 35 630 251 871 489 52 52 94 89 94 82 8 -233 20 -342 49 -465 82
-339 259 -602 521 -776 176 -117 353 -181 585 -212 79 -10 364 -10 440 0 164
23 346 78 489 148 l86 43 0 283 c0 156 -2 283 -5 283 -2 0 -38 -22 -80 -49
-404 -264 -886 -272 -1145 -19 -114 111 -198 270 -226 424 -3 15 -7 30 -9 34
-10 16 -20 170 -19 300 1 239 46 419 141 569 184 289 473 382 898 287 97 -21
264 -100 377 -177 32 -21 60 -39 63 -39 3 0 5 127 5 283 l0 283 -72 37 c-94
47 -254 108 -323 121 -5 2 -35 8 -65 14 -30 7 -71 15 -90 18 -64 10 -394 13
-455 3 -33 -5 -75 -12 -93 -14 -148 -22 -343 -96 -474 -180 -154 -100 -276
-221 -375 -375 -31 -47 -135 -173 -169 -205 -6 -5 -47 -55 -91 -110 -109 -136
-197 -225 -333 -336 -63 -52 -138 -114 -167 -137 -119 -98 -437 -226 -594
-239 -181 -15 -392 87 -518 251 -78 101 -115 197 -141 361 -9 57 -6 496 4 600
15 148 18 178 20 193 2 9 6 38 10 63 11 76 15 93 41 184 81 278 204 420 490
563 281 141 529 216 777 238 l77 6 31 -33 c89 -96 107 -113 140 -127 49 -22
67 -25 131 -26 69 -1 105 17 119 60 49 149 -152 364 -410 438 -140 40 -337 39
-534 -4 -405 -89 -854 -351 -1062 -622 -80 -103 -153 -258 -168 -354 -12 -73
-17 -80 -74 -111 -286 -157 -663 -181 -890 -56 -99 54 -152 101 -221 194 -56
75 -83 125 -109 201 -58 166 -66 217 -66 438 0 162 3 211 21 290 65 296 215
493 443 583 89 35 115 39 270 43 256 6 434 -48 672 -202 37 -24 70 -44 73 -44
3 0 5 128 4 284 l-1 284 -96 45 c-233 109 -444 156 -702 154 -80 0 -183 -6
-230 -13z"/>
</g>
</svg>
